<?xml version="1.0" encoding="UTF-8"?>
<svg version="1.1" xmlns="http://www.w3.org/2000/svg" width="350" height="350">
<path d="M0 0 C115.5 0 231 0 350 0 C350 115.5 350 231 350 350 C234.5 350 119 350 0 350 C0 234.5 0 119 0 0 Z " fill="#FEFEFE" transform="translate(0,0)"/>
<path d="M0 0 C6.69231037 5.56070152 12.55220894 14.16863657 13.38891602 23.0012207 C13.49190537 25.42109098 13.50952024 27.82805135 13.5 30.25 C13.51611328 31.06210938 13.53222656 31.87421875 13.54882812 32.7109375 C13.55218086 36.89514815 13.21918967 40.26394846 11.6484375 44.1640625 C10.26715759 47.67266119 9.87886595 49.26112914 10.5 52.875 C10.61988281 53.638125 10.73976563 54.40125 10.86328125 55.1875 C11.02376953 56.0228125 11.02376953 56.0228125 11.1875 56.875 C11.8475 56.875 12.5075 56.875 13.1875 56.875 C14.1775 53.905 15.1675 50.935 16.1875 47.875 C17.1775 47.875 18.1675 47.875 19.1875 47.875 C17.85069304 52.2098886 16.15431756 56.10305127 14.0625 60.125 C11.93216171 63.82132249 11.93216171 63.82132249 11.1875 67.875 C11.8475 68.535 12.5075 69.195 13.1875 69.875 C13.765 69.524375 14.3425 69.17375 14.9375 68.8125 C17.1875 67.875 17.1875 67.875 19.375 68.125 C21.1875 68.875 21.1875 68.875 22.1875 70.875 C21.6925 71.514375 21.1975 72.15375 20.6875 72.8125 C19.08947138 74.58474339 19.08947138 74.58474339 19.1875 75.875 C16.5475 75.875 13.9075 75.875 11.1875 75.875 C12.1875 73.875 12.1875 73.875 15.1875 72.875 C11.81287285 73.42223683 10.10515 73.9299 7.1875 75.875 C1.51673856 76.93226061 -3.13183101 76.78796466 -8.8125 75.875 C-7.8125 73.875 -7.8125 73.875 -5.96484375 73.2421875 C-5.23394531 73.07976562 -4.50304687 72.91734375 -3.75 72.75 C-3.01652344 72.58242187 -2.28304687 72.41484375 -1.52734375 72.2421875 C-0.67849609 72.06042969 -0.67849609 72.06042969 0.1875 71.875 C0.1875 70.885 0.1875 69.895 0.1875 68.875 C2.1675 69.37 2.1675 69.37 4.1875 69.875 C4.1875 67.71865964 3.7409764 65.95053648 3.1875 63.875 C3.991875 64.060625 4.79625 64.24625 5.625 64.4375 C6.470625 64.581875 7.31625 64.72625 8.1875 64.875 C9.49939416 63.77701339 9.49939416 63.77701339 9.4375 61.0625 C9.16576344 57.59785889 8.50059135 56.38084896 6.1875 53.875 C6.043125 54.7825 5.89875 55.69 5.75 56.625 C3.4373369 61.43533925 0.00178354 62.07895923 -4.8125 63.875 C-6.46321919 64.59303729 -8.10932229 65.3218057 -9.75 66.0625 C-10.48089844 66.38605469 -11.21179688 66.70960938 -11.96484375 67.04296875 C-13.26008929 67.62624 -14.54195166 68.23972583 -15.8125 68.875 C-25.3155491 69.79497738 -35.61307973 70.31015102 -43.8125 64.875 C-44.885 64.235625 -45.9575 63.59625 -47.0625 62.9375 C-55.43173916 56.66057063 -60.99787795 48.94955988 -63.8125 38.875 C-65.40711711 27.12488344 -63.47799293 16.80299989 -56.609375 7.078125 C-41.81963123 -11.05538693 -18.96136671 -13.2474195 0 0 Z " fill="#FEF64F" transform="translate(116.8125,138.125)"/>
<path d="M0 0 C1.875 1.5 1.875 1.5 3 3 C3.33 2.01 3.66 1.02 4 0 C4.639375 0.185625 5.27875 0.37125 5.9375 0.5625 C6.9584375 0.7790625 6.9584375 0.7790625 8 1 C8.33 0.67 8.66 0.34 9 0 C10.93305919 0.26662885 12.86589787 0.53509483 14.796875 0.81640625 C17.28570957 1.10712706 17.28570957 1.10712706 20.875 0.4375 C21.90625 0.293125 22.9375 0.14875 24 0 C26 2 26 2 26.1953125 4.6015625 C26.17210937 5.59929687 26.14890625 6.59703125 26.125 7.625 C26.10695312 8.62789062 26.08890625 9.63078125 26.0703125 10.6640625 C26.04710937 11.43492187 26.02390625 12.20578125 26 13 C25.34 13 24.68 13 24 13 C24 9.7 24 6.4 24 3 C22.02 3 20.04 3 18 3 C17.67 6.3 17.34 9.6 17 13 C16.01 13 15.02 13 14 13 C13.505 8.05 13.505 8.05 13 3 C11.35 3.33 9.7 3.66 8 4 C7.67 6.97 7.34 9.94 7 13 C5.68 12.67 4.36 12.34 3 12 C2.67 12.33 2.34 12.66 2 13 C0.0390625 13.203125 0.0390625 13.203125 -2.375 13.25 C-3.16648438 13.27578125 -3.95796875 13.3015625 -4.7734375 13.328125 C-7 13 -7 13 -8.76171875 11.703125 C-10.84241711 8.84134429 -10.42476854 6.39814835 -10 3 C-7.15121935 -0.39662308 -4.26361577 -0.54429137 0 0 Z " fill="#E2E2E2" transform="translate(171,186)"/>
<path d="M0 0 C1.32 0 2.64 0 4 0 C4.66 2.97 5.32 5.94 6 9 C6.66 9 7.32 9 8 9 C8.99 6.03 9.98 3.06 11 0 C11.99 0 12.98 0 14 0 C12.66319304 4.3348886 10.96681756 8.22805127 8.875 12.25 C6.74466171 15.94632249 6.74466171 15.94632249 6 20 C6.66 20.66 7.32 21.32 8 22 C8.5775 21.649375 9.155 21.29875 9.75 20.9375 C12 20 12 20 14.1875 20.25 C16 21 16 21 17 23 C16.2575 23.9590625 16.2575 23.9590625 15.5 24.9375 C13.90197138 26.70974339 13.90197138 26.70974339 14 28 C11.36 28 8.72 28 6 28 C7 26 7 26 10 25 C6.62537285 25.54723683 4.91765 26.0549 2 28 C-3.67076144 29.05726061 -8.31933101 28.91296466 -14 28 C-13 26 -13 26 -11.15234375 25.3671875 C-10.05599609 25.12355469 -10.05599609 25.12355469 -8.9375 24.875 C-8.20402344 24.70742187 -7.47054687 24.53984375 -6.71484375 24.3671875 C-6.14894531 24.24601562 -5.58304688 24.12484375 -5 24 C-5 23.01 -5 22.02 -5 21 C-3.68 21.33 -2.36 21.66 -1 22 C-1 19.84365964 -1.4465236 18.07553648 -2 16 C-1.195625 16.185625 -0.39125 16.37125 0.4375 16.5625 C1.283125 16.706875 2.12875 16.85125 3 17 C4.27569808 15.929738 4.27569808 15.929738 4.3125 13.4375 C3.95693351 9.52626861 2.76334174 7.11765395 0.875 3.734375 C0 2 0 2 0 0 Z " fill="#838383" transform="translate(122,186)"/>
<path d="M0 0 C0.99 0 1.98 0 3 0 C3 6.27 3 12.54 3 19 C-7.47610182 19.36974477 -7.47610182 19.36974477 -9.83203125 17.70703125 C-11.78547961 14.85199133 -11.35745403 12.33623765 -11 9 C-9.875 7.0625 -9.875 7.0625 -8 6 C-4.90498792 5.74734595 -2.79870027 5.60064987 0 7 C0 4.69 0 2.38 0 0 Z " fill="#313131" transform="translate(252,180)"/>
<path d="M0 0 C1.09570312 0.00902344 2.19140625 0.01804688 3.3203125 0.02734375 C4.16335937 0.03894531 5.00640625 0.05054688 5.875 0.0625 C6.205 1.0525 6.535 2.0425 6.875 3.0625 C2.915 3.0625 -1.045 3.0625 -5.125 3.0625 C-5.125 3.7225 -5.125 4.3825 -5.125 5.0625 C-4.27035156 5.26746094 -3.41570312 5.47242188 -2.53515625 5.68359375 C-1.43042969 5.95300781 -0.32570313 6.22242188 0.8125 6.5 C1.91464844 6.76683594 3.01679687 7.03367188 4.15234375 7.30859375 C6.875 8.0625 6.875 8.0625 7.875 9.0625 C8.125 11.5 8.125 11.5 7.875 14.0625 C4.24304504 16.48380331 2.49150652 16.27272785 -1.8125 16.1875 C-3.58173828 16.16042969 -3.58173828 16.16042969 -5.38671875 16.1328125 C-6.29035156 16.10960937 -7.19398437 16.08640625 -8.125 16.0625 C-8.455 14.7425 -8.785 13.4225 -9.125 12.0625 C-8.135 12.3925 -7.145 12.7225 -6.125 13.0625 C-4.39704648 13.13052967 -2.66664635 13.14745645 -0.9375 13.125 C-0.03644531 13.11597656 0.86460938 13.10695312 1.79296875 13.09765625 C2.82357422 13.08025391 2.82357422 13.08025391 3.875 13.0625 C4.205 12.0725 4.535 11.0825 4.875 10.0625 C4.28332031 10.02511719 3.69164063 9.98773438 3.08203125 9.94921875 C-1.73167451 9.54873099 -5.13341777 9.0239965 -9.125 6.0625 C-8.75 3.625 -8.75 3.625 -8.125 1.0625 C-5.36047967 -0.31976016 -3.0788637 -0.03275387 0 0 Z " fill="#1A1A0B" transform="translate(114.125,182.9375)"/>
<path d="M0 0 C1.875 1.25 1.875 1.25 3 3 C3 4.32 3 5.64 3 7 C-0.3 7 -3.6 7 -7 7 C-6.67 7.99 -6.34 8.98 -6 10 C-3.03 10 -0.06 10 3 10 C3 10.99 3 11.98 3 13 C1.39667209 13.08121924 -0.20784026 13.13929134 -1.8125 13.1875 C-2.70582031 13.22230469 -3.59914062 13.25710937 -4.51953125 13.29296875 C-7 13 -7 13 -8.796875 11.70703125 C-10.82466041 8.82994611 -10.42309743 6.38477945 -10 3 C-7.15121935 -0.39662308 -4.26361577 -0.54429137 0 0 Z " fill="#0B0B0B" transform="translate(223,186)"/>
<path d="M0 0 C3 0 3 0 6.75 0.5625 C9.79035291 0.97760353 11.73316871 0.89357228 14.875 0.4375 C15.90625 0.293125 16.9375 0.14875 18 0 C20 2 20 2 20.1953125 4.6015625 C20.17210937 5.59929687 20.14890625 6.59703125 20.125 7.625 C20.10695312 8.62789062 20.08890625 9.63078125 20.0703125 10.6640625 C20.04710937 11.43492187 20.02390625 12.20578125 20 13 C19.34 13 18.68 13 18 13 C18 9.7 18 6.4 18 3 C16.02 3 14.04 3 12 3 C11.67 6.3 11.34 9.6 11 13 C10.01 13 9.02 13 8 13 C7.67 9.7 7.34 6.4 7 3 C5.35 3.33 3.7 3.66 2 4 C1.67 6.97 1.34 9.94 1 13 C0.34 13 -0.32 13 -1 13 C-1.02686553 11.02090602 -1.04633375 9.04171029 -1.0625 7.0625 C-1.07410156 5.96035156 -1.08570313 4.85820312 -1.09765625 3.72265625 C-1 1 -1 1 0 0 Z " fill="#151515" transform="translate(177,186)"/>
<path d="M0 0 C1.32 0 2.64 0 4 0 C4.66 2.97 5.32 5.94 6 9 C6.66 9 7.32 9 8 9 C8.99 6.03 9.98 3.06 11 0 C11.99 0 12.98 0 14 0 C12.66319304 4.3348886 10.96681756 8.22805127 8.875 12.25 C6.74466171 15.94632249 6.74466171 15.94632249 6 20 C5.68521554 21.33783393 5.35412344 22.67203709 5 24 C4.38125 23.319375 4.38125 23.319375 3.75 22.625 C1.93591905 20.94049626 0.24714373 20.00734029 -2 19 C-1.505 17.515 -1.505 17.515 -1 16 C-0.360625 16.185625 0.27875 16.37125 0.9375 16.5625 C1.9584375 16.7790625 1.9584375 16.7790625 3 17 C4.27569808 15.929738 4.27569808 15.929738 4.3125 13.4375 C3.95693351 9.52626861 2.76334174 7.11765395 0.875 3.734375 C0 2 0 2 0 0 Z " fill="#1E1E1E" transform="translate(122,186)"/>
<path d="M0 0 C1.875 1.25 1.875 1.25 3 3 C3 4.32 3 5.64 3 7 C-0.3 7 -3.6 7 -7 7 C-6.67 7.99 -6.34 8.98 -6 10 C-3.36 10.33 -0.72 10.66 2 11 C2 11.66 2 12.32 2 13 C0.56344146 13.08131463 -0.8744483 13.13933559 -2.3125 13.1875 C-3.51326172 13.23970703 -3.51326172 13.23970703 -4.73828125 13.29296875 C-7 13 -7 13 -8.765625 11.70703125 C-10.8384379 8.84051468 -10.4248241 6.39859283 -10 3 C-7.15121935 -0.39662308 -4.26361577 -0.54429137 0 0 Z " fill="#212121" transform="translate(237,186)"/>
<path d="M0 0 C0.99 0.66 1.98 1.32 3 2 C3 3.65 3 5.3 3 7 C-0.3 7 -3.6 7 -7 7 C-6.01 8.485 -6.01 8.485 -5 10 C-3.02252878 10.36297936 -3.02252878 10.36297936 -0.875 10.1875 C0.40375 10.125625 1.6825 10.06375 3 10 C3 10.99 3 11.98 3 13 C1.37536158 13.05395478 -0.24978541 13.09277195 -1.875 13.125 C-2.77992188 13.14820313 -3.68484375 13.17140625 -4.6171875 13.1953125 C-7 13 -7 13 -9 11 C-9.55641422 3.98918083 -9.55641422 3.98918083 -7.875 1 C-5.13335219 -0.46221217 -3.05603838 -0.31833733 0 0 Z " fill="#161616" transform="translate(266,186)"/>
<path d="M0 0 C0.80566406 0.00257813 1.61132812 0.00515625 2.44140625 0.0078125 C3.64603516 0.00394531 3.64603516 0.00394531 4.875 0 C7.00390625 0.1328125 7.00390625 0.1328125 9.00390625 1.1328125 C9.00390625 1.7928125 9.00390625 2.4528125 9.00390625 3.1328125 C5.70390625 2.8028125 2.40390625 2.4728125 -0.99609375 2.1328125 C-0.99609375 3.1228125 -0.99609375 4.1128125 -0.99609375 5.1328125 C-0.35800781 5.19339844 0.28007812 5.25398437 0.9375 5.31640625 C1.76378906 5.40019531 2.59007812 5.48398438 3.44140625 5.5703125 C4.67697266 5.69212891 4.67697266 5.69212891 5.9375 5.81640625 C8.00390625 6.1328125 8.00390625 6.1328125 9.00390625 7.1328125 C9.12890625 9.6328125 9.12890625 9.6328125 9.00390625 12.1328125 C8.00390625 13.1328125 8.00390625 13.1328125 5.5 13.23046875 C3.98599609 13.21306641 3.98599609 13.21306641 2.44140625 13.1953125 C1.42949219 13.18628906 0.41757812 13.17726562 -0.625 13.16796875 C-1.40746094 13.15636719 -2.18992187 13.14476562 -2.99609375 13.1328125 C-3.32609375 12.1428125 -3.65609375 11.1528125 -3.99609375 10.1328125 C-0.69609375 10.1328125 2.60390625 10.1328125 6.00390625 10.1328125 C6.00390625 9.8028125 6.00390625 9.4728125 6.00390625 9.1328125 C4.72515625 8.8234375 3.44640625 8.5140625 2.12890625 8.1953125 C-0.0971105 7.65676006 -1.94349374 7.1591125 -3.99609375 6.1328125 C-2.93032766 0.19497288 -2.93032766 0.19497288 0 0 Z " fill="#2A2A2A" transform="translate(285.99609375,185.8671875)"/>
<path d="M0 0 C0.7940625 -0.01675781 1.588125 -0.03351563 2.40625 -0.05078125 C3.0971875 0.06910156 3.788125 0.18898437 4.5 0.3125 C5.16 1.3025 5.82 2.2925 6.5 3.3125 C3.2 2.9825 -0.1 2.6525 -3.5 2.3125 C-3.5 3.3025 -3.5 4.2925 -3.5 5.3125 C-0.2 5.9725 3.1 6.6325 6.5 7.3125 C6.5 8.9625 6.5 10.6125 6.5 12.3125 C3.97524538 13.57487731 2.18799534 13.41106404 -0.625 13.375 C-1.53507813 13.36597656 -2.44515625 13.35695312 -3.3828125 13.34765625 C-4.08148438 13.33605469 -4.78015625 13.32445312 -5.5 13.3125 C-5.83 12.3225 -6.16 11.3325 -6.5 10.3125 C-3.2 10.3125 0.1 10.3125 3.5 10.3125 C3.5 9.9825 3.5 9.6525 3.5 9.3125 C-0.955 8.3225 -0.955 8.3225 -5.5 7.3125 C-6.125 4.9375 -6.125 4.9375 -6.5 2.3125 C-4.07477793 -0.11272207 -3.3279321 0.01620746 0 0 Z " fill="#181818" transform="translate(205.5,185.6875)"/>
<path d="M0 0 C0.70125 0.01417969 1.4025 0.02835938 2.125 0.04296875 C3.176875 0.05263672 3.176875 0.05263672 4.25 0.0625 C6.125 0.23046875 6.125 0.23046875 8.125 1.23046875 C8.125 1.89046875 8.125 2.55046875 8.125 3.23046875 C5.155 3.23046875 2.185 3.23046875 -0.875 3.23046875 C1.32297403 5.42844278 2.30046145 5.68944392 5.25 6.35546875 C6.52875 6.64421875 7.8075 6.93296875 9.125 7.23046875 C8.25 12.10546875 8.25 12.10546875 7.125 13.23046875 C5.27212498 13.30273377 3.41666122 13.31428095 1.5625 13.29296875 C0.55058594 13.28394531 -0.46132812 13.27492187 -1.50390625 13.265625 C-2.28636719 13.25402344 -3.06882813 13.24242187 -3.875 13.23046875 C-3.545 12.24046875 -3.215 11.25046875 -2.875 10.23046875 C0.095 10.56046875 3.065 10.89046875 6.125 11.23046875 C5.33200294 9.06008398 5.33200294 9.06008398 3.27734375 8.59765625 C2.54644531 8.43523437 1.81554687 8.2728125 1.0625 8.10546875 C0.32902344 7.93789062 -0.40445313 7.7703125 -1.16015625 7.59765625 C-1.72605469 7.47648438 -2.29195312 7.3553125 -2.875 7.23046875 C-3.5 4.85546875 -3.5 4.85546875 -3.875 2.23046875 C-1.875 0.23046875 -1.875 0.23046875 0 0 Z " fill="#222222" transform="translate(140.875,185.76953125)"/>
<path d="M0 0 C0.66 0.99 1.32 1.98 2 3 C-0.64 3 -3.28 3 -6 3 C-6.33 3.99 -6.66 4.98 -7 6 C-5.02 6 -3.04 6 -1 6 C-1 6.33 -1 6.66 -1 7 C-2.98 7 -4.96 7 -7 7 C-6.67 7.99 -6.34 8.98 -6 10 C-3.36 10.33 -0.72 10.66 2 11 C2 11.66 2 12.32 2 13 C0.56344146 13.08131463 -0.8744483 13.13933559 -2.3125 13.1875 C-3.51326172 13.23970703 -3.51326172 13.23970703 -4.73828125 13.29296875 C-7 13 -7 13 -8.765625 11.70703125 C-10.8384379 8.84051468 -10.4248241 6.39859283 -10 3 C-7.15888067 -0.38748844 -4.25668234 -0.55521944 0 0 Z " fill="#141414" transform="translate(171,186)"/>
<path d="M0 0 C0.66 0 1.32 0 2 0 C2 0.99 2 1.98 2 3 C3.65 3 5.3 3 7 3 C7 3.66 7 4.32 7 5 C5.35 5 3.7 5 2 5 C2 7.97 2 10.94 2 14 C3.32 14 4.64 14 6 14 C6 14.66 6 15.32 6 16 C4.00045254 16.04254356 1.99958364 16.04080783 0 16 C-1 15 -1 15 -1.09765625 12.71484375 C-1.08605469 11.79832031 -1.07445312 10.88179687 -1.0625 9.9375 C-1.05347656 9.01839844 -1.04445312 8.09929687 -1.03515625 7.15234375 C-1.02355469 6.44207031 -1.01195312 5.73179687 -1 5 C-1.99 5 -2.98 5 -4 5 C-4 4.34 -4 3.68 -4 3 C-3.01 2.67 -2.02 2.34 -1 2 C-0.67 1.34 -0.34 0.68 0 0 Z " fill="#353535" transform="translate(154,183)"/>
<path d="M0 0 C1.60407328 -0.02708567 3.2082785 -0.04643483 4.8125 -0.0625 C5.70582031 -0.07410156 6.59914063 -0.08570313 7.51953125 -0.09765625 C10 0 10 0 13 1 C14.1875 3.5625 14.1875 3.5625 15 6 C11.28233332 7.23922223 9.56110463 6.57018942 5.8125 5.5625 C4.72582031 5.27503906 3.63914062 4.98757812 2.51953125 4.69140625 C1.27236328 4.34916016 1.27236328 4.34916016 0 4 C0 2.68 0 1.36 0 0 Z " fill="#F2EB4B" transform="translate(109,185)"/>
<path d="M0 0 C2.5625 0.1875 2.5625 0.1875 4.5625 2.1875 C4.75 5.25 4.75 5.25 4.5625 8.1875 C3.5625 9.1875 3.5625 9.1875 0.5625 9.3125 C-2.4375 9.1875 -2.4375 9.1875 -3.4375 8.1875 C-3.5625 4.6875 -3.5625 4.6875 -3.4375 1.1875 C-2.4375 0.1875 -2.4375 0.1875 0 0 Z " fill="#F0F0F0" transform="translate(247.4375,187.8125)"/>
<path d="M0 0 C4.29 0 8.58 0 13 0 C13 2.97 13 5.94 13 9 C12.01 9 11.02 9 10 9 C10 7.68 10 6.36 10 5 C6.7 4.34 3.4 3.68 0 3 C0 2.01 0 1.02 0 0 Z " fill="#EAEAEA" transform="translate(140,188)"/>
<path d="M0 0 C0.33 0 0.66 0 1 0 C1 5.94 1 11.88 1 18 C-0.60875 18.020625 -2.2175 18.04125 -3.875 18.0625 C-5.23238281 18.07990234 -5.23238281 18.07990234 -6.6171875 18.09765625 C-9 18 -9 18 -11 17 C-11 14.36 -11 11.72 -11 9 C-10.67 9 -10.34 9 -10 9 C-9.34 10.98 -8.68 12.96 -8 15 C-6.02 15 -4.04 15 -2 15 C-2 12.36 -2 9.72 -2 7 C-1.34 7 -0.68 7 0 7 C0 4.69 0 2.38 0 0 Z " fill="#030303" transform="translate(253,181)"/>
<path d="M0 0 C2 0.3125 2 0.3125 4 1 C4.33 1.66 4.66 2.32 5 3 C4.505 3.639375 4.01 4.27875 3.5 4.9375 C1.90197138 6.70974339 1.90197138 6.70974339 2 8 C-0.64 8 -3.28 8 -6 8 C-5 6 -5 6 -2 5 C-2.763125 5.165 -3.52625 5.33 -4.3125 5.5 C-7 6 -7 6 -10 6 C-9.360625 5.731875 -8.72125 5.46375 -8.0625 5.1875 C-5.66868314 4.11332248 -5.66868314 4.11332248 -5 1 C-3.68 1 -2.36 1 -1 1 C-0.67 0.67 -0.34 0.34 0 0 Z " fill="#A8A8A8" transform="translate(134,206)"/>
<path d="M0 0 C1.9375 1.25 1.9375 1.25 3 3 C2.6875 5.1875 2.6875 5.1875 2 7 C1.67 6.34 1.34 5.68 1 5 C-0.299375 5.020625 -1.59875 5.04125 -2.9375 5.0625 C-4.29165633 5.08399454 -5.64756083 5.07148199 -7 5 C-7.33 4.67 -7.66 4.34 -8 4 C-8.33 5.98 -8.66 7.96 -9 10 C-9.33 10 -9.66 10 -10 10 C-10.48468708 3.57789614 -10.48468708 3.57789614 -8.375 1.0625 C-5.33957342 -0.295454 -3.29238472 -0.42030443 0 0 Z " fill="#212121" transform="translate(223,186)"/>
<path d="M0 0 C0.33 0.66 0.66 1.32 1 2 C5.455 1.505 5.455 1.505 10 1 C10 1.99 10 2.98 10 4 C7.03 4 4.06 4 1 4 C1.33 4.99 1.66 5.98 2 7 C4.64 7.33 7.28 7.66 10 8 C10 8.66 10 9.32 10 10 C8.54207116 10.05399736 7.08357288 10.09279177 5.625 10.125 C4.81289062 10.14820313 4.00078125 10.17140625 3.1640625 10.1953125 C1 10 1 10 -1 8 C-1.1875 4.4375 -1.1875 4.4375 -1 1 C-0.67 0.67 -0.34 0.34 0 0 Z " fill="#0B0B0B" transform="translate(229,189)"/>
<path d="M0 0 C2.97 0 5.94 0 9 0 C9.33 0.99 9.66 1.98 10 3 C7.69 3 5.38 3 3 3 C3 6.3 3 9.6 3 13 C2.01 13 1.02 13 0 13 C0 8.71 0 4.42 0 0 Z " fill="#242424" transform="translate(271,186)"/>
<path d="M0 0 C2.09350689 3.4019487 2.17942163 6.05272412 2 10 C1.34 10 0.68 10 0 10 C-0.33 9.34 -0.66 8.68 -1 8 C-3.31 8 -5.62 8 -8 8 C-8.66 6.68 -9.32 5.36 -10 4 C-6.7 4 -3.4 4 0 4 C0 2.68 0 1.36 0 0 Z " fill="#EDEDED" transform="translate(269,189)"/>
<path d="M0 0 C0.66 0 1.32 0 2 0 C2.33 0.99 2.66 1.98 3 3 C5.10584438 3.80563638 5.10584438 3.80563638 7.5625 4.1875 C8.38878906 4.34605469 9.21507812 4.50460938 10.06640625 4.66796875 C11.02353516 4.83232422 11.02353516 4.83232422 12 5 C12 5.99 12 6.98 12 8 C11.30132812 7.97679687 10.60265625 7.95359375 9.8828125 7.9296875 C8.51769531 7.90261719 8.51769531 7.90261719 7.125 7.875 C6.22007812 7.85179687 5.31515625 7.82859375 4.3828125 7.8046875 C1.81193006 7.75675164 1.81193006 7.75675164 0 10 C0 6.7 0 3.4 0 0 Z " fill="#E7E7E7" transform="translate(197,189)"/>
<path d="M0 0 C0.33 0 0.66 0 1 0 C1.33 2.31 1.66 4.62 2 7 C1.34 7 0.68 7 0 7 C-0.33 7.66 -0.66 8.32 -1 9 C-1 8.34 -1 7.68 -1 7 C-3.64 7 -6.28 7 -9 7 C-9.33 5.68 -9.66 4.36 -10 3 C-6.7 3 -3.4 3 0 3 C0 2.01 0 1.02 0 0 Z " fill="#EBEBEB" transform="translate(240,190)"/>
<path d="M0 0 C1.65 0 3.3 0 5 0 C5.33 2.97 5.66 5.94 6 9 C4 10 4 10 0 9 C0 6.03 0 3.06 0 0 Z " fill="#EFEFEF" transform="translate(156,188)"/>
<path d="M0 0 C7.42857143 -0.14285714 7.42857143 -0.14285714 11 1 C11.33 3.64 11.66 6.28 12 9 C11.34 9 10.68 9 10 9 C10 7.68 10 6.36 10 5 C6.7 4.34 3.4 3.68 0 3 C0 2.01 0 1.02 0 0 Z " fill="#E5E5E5" transform="translate(202,188)"/>
<path d="M0 0 C0.33 0 0.66 0 1 0 C1.33 1.98 1.66 3.96 2 6 C-1.63 6 -5.26 6 -9 6 C-9.33 4.68 -9.66 3.36 -10 2 C-6.7 2 -3.4 2 0 2 C0 1.34 0 0.68 0 0 Z " fill="#F4F4F4" transform="translate(226,191)"/>
<path d="M0 0 C0.80308594 -0.02578125 1.60617188 -0.0515625 2.43359375 -0.078125 C3.48740234 0.08429688 3.48740234 0.08429688 4.5625 0.25 C5.2225 1.24 5.8825 2.23 6.5625 3.25 C3.2625 2.92 -0.0375 2.59 -3.4375 2.25 C-3.4375 3.24 -3.4375 4.23 -3.4375 5.25 C-2.7775 5.25 -2.1175 5.25 -1.4375 5.25 C-1.1075 6.24 -0.7775 7.23 -0.4375 8.25 C-2.4175 7.59 -4.3975 6.93 -6.4375 6.25 C-5.33408721 0.10241447 -5.33408721 0.10241447 0 0 Z " fill="#242424" transform="translate(205.4375,185.75)"/>
<path d="M0 0 C0.80566406 0.00257813 1.61132812 0.00515625 2.44140625 0.0078125 C3.64603516 0.00394531 3.64603516 0.00394531 4.875 0 C7.00390625 0.1328125 7.00390625 0.1328125 9.00390625 1.1328125 C9.00390625 1.7928125 9.00390625 2.4528125 9.00390625 3.1328125 C5.70390625 2.8028125 2.40390625 2.4728125 -0.99609375 2.1328125 C-0.99609375 3.1228125 -0.99609375 4.1128125 -0.99609375 5.1328125 C0.65390625 5.4628125 2.30390625 5.7928125 4.00390625 6.1328125 C4.00390625 6.4628125 4.00390625 6.7928125 4.00390625 7.1328125 C-1.74609375 7.2578125 -1.74609375 7.2578125 -3.99609375 6.1328125 C-2.93032766 0.19497288 -2.93032766 0.19497288 0 0 Z " fill="#191919" transform="translate(285.99609375,185.8671875)"/>
<path d="M0 0 C0.70125 0.01417969 1.4025 0.02835938 2.125 0.04296875 C3.176875 0.05263672 3.176875 0.05263672 4.25 0.0625 C6.125 0.23046875 6.125 0.23046875 8.125 1.23046875 C8.125 1.89046875 8.125 2.55046875 8.125 3.23046875 C5.155 3.23046875 2.185 3.23046875 -0.875 3.23046875 C0.445 4.55046875 1.765 5.87046875 3.125 7.23046875 C1.145 7.23046875 -0.835 7.23046875 -2.875 7.23046875 C-3.5 4.85546875 -3.5 4.85546875 -3.875 2.23046875 C-1.875 0.23046875 -1.875 0.23046875 0 0 Z " fill="#0F0F0F" transform="translate(140.875,185.76953125)"/>
<path d="M0 0 C2.97 0.33 5.94 0.66 9 1 C9 2.32 9 3.64 9 5 C5.7 4.67 2.4 4.34 -1 4 C-0.67 2.68 -0.34 1.36 0 0 Z " fill="#191919" transform="translate(165,188)"/>
<path d="M0 0 C1.09570312 0.00902344 2.19140625 0.01804688 3.3203125 0.02734375 C4.16335937 0.03894531 5.00640625 0.05054688 5.875 0.0625 C6.205 1.0525 6.535 2.0425 6.875 3.0625 C5.88757813 3.02769531 4.90015625 2.99289063 3.8828125 2.95703125 C1.96082031 2.91642578 1.96082031 2.91642578 0 2.875 C-1.27617188 2.84019531 -2.55234375 2.80539063 -3.8671875 2.76953125 C-5.47980469 2.91455078 -5.47980469 2.91455078 -7.125 3.0625 C-7.785 4.0525 -8.445 5.0425 -9.125 6.0625 C-8.75 3.625 -8.75 3.625 -8.125 1.0625 C-5.36047967 -0.31976016 -3.0788637 -0.03275387 0 0 Z " fill="#131306" transform="translate(114.125,182.9375)"/>
<path d="M0 0 C0.99 0.33 1.98 0.66 3 1 C4.56118428 1.06740865 6.1250252 1.08514456 7.6875 1.0625 C8.49574219 1.05347656 9.30398437 1.04445312 10.13671875 1.03515625 C10.75160156 1.02355469 11.36648437 1.01195312 12 1 C12 1.99 12 2.98 12 4 C8.7 4 5.4 4 2 4 C1.34 2.68 0.68 1.36 0 0 Z " fill="#222222" transform="translate(214,195)"/>
<path d="M0 0 C0.33 0 0.66 0 1 0 C1 2.64 1 5.28 1 8 C2.65 8 4.3 8 6 8 C6 8.66 6 9.32 6 10 C4.00045254 10.04254356 1.99958364 10.04080783 0 10 C-1 9 -1 9 -1.1328125 7.1875 C-1.13023437 6.465625 -1.12765625 5.74375 -1.125 5 C-1.12757813 4.278125 -1.13015625 3.55625 -1.1328125 2.8125 C-1 1 -1 1 0 0 Z " fill="#0D0D0D" transform="translate(154,189)"/>
<path d="M0 0 C4.70588235 0.70588235 4.70588235 0.70588235 6 2 C6.04063832 3.66617115 6.042721 5.33388095 6 7 C3.03 6.67 0.06 6.34 -3 6 C-3 5.67 -3 5.34 -3 5 C-0.69 5 1.62 5 4 5 C2.74458443 2.48916886 1.49936512 2.12874554 -1 1 C-0.67 0.67 -0.34 0.34 0 0 Z " fill="#0D0D0D" transform="translate(263,186)"/>
<path d="M0 0 C0.33 0 0.66 0 1 0 C1.66 1.98 2.32 3.96 3 6 C5.31 6.33 7.62 6.66 10 7 C9.67 7.66 9.34 8.32 9 9 C2.25 9.125 2.25 9.125 0 8 C0 5.36 0 2.72 0 0 Z " fill="#131313" transform="translate(242,190)"/>
<path d="M0 0 C1.32 0 2.64 0 4 0 C4.66 2.64 5.32 5.28 6 8 C5.01 8 4.02 8 3 8 C0 2.25 0 2.25 0 0 Z " fill="#373622" transform="translate(122,186)"/>
<path d="M0 0 C1.9078584 3.1749094 2.1609041 5.10585211 1.625 8.75 C1.51414063 9.54921875 1.40328125 10.3484375 1.2890625 11.171875 C1.19367188 11.77515625 1.09828125 12.3784375 1 13 C0.34 13 -0.32 13 -1 13 C-1.02686553 11.02090602 -1.04633375 9.04171029 -1.0625 7.0625 C-1.07410156 5.96035156 -1.08570313 4.85820312 -1.09765625 3.72265625 C-1 1 -1 1 0 0 Z " fill="#040404" transform="translate(177,186)"/>
<path d="M0 0 C2.97 0.495 2.97 0.495 6 1 C5.01 1.495 5.01 1.495 4 2 C4 3.65 4 5.3 4 7 C3.01 7 2.02 7 1 7 C1.33 6.34 1.66 5.68 2 5 C0.68 4.34 -0.64 3.68 -2 3 C-1.34 2.01 -0.68 1.02 0 0 Z " fill="#626262" transform="translate(143,206)"/>
<path d="M0 0 C0.66 0.66 1.32 1.32 2 2 C1.505 2.639375 1.01 3.27875 0.5 3.9375 C-1.09802862 5.70974339 -1.09802862 5.70974339 -1 7 C-3.64 7 -6.28 7 -9 7 C-7.39598746 3.79197492 -4.19662773 3.36998331 -1 2 C-0.67 1.34 -0.34 0.68 0 0 Z " fill="#242424" transform="translate(137,207)"/>
<path d="M0 0 C3.63 0.66 7.26 1.32 11 2 C11 2.66 11 3.32 11 4 C8.03 4 5.06 4 2 4 C1.34 2.68 0.68 1.36 0 0 Z " fill="#111111" transform="translate(228,195)"/>
<path d="M0 0 C1.32 0 2.64 0 4 0 C3.25 1.9375 3.25 1.9375 2 4 C-0.125 4.75 -0.125 4.75 -2 5 C-1.125 1.125 -1.125 1.125 0 0 Z " fill="#F8F8F8" transform="translate(123,208)"/>
<path d="M0 0 C-0.99 1.485 -0.99 1.485 -2 3 C-5.125 3.1875 -5.125 3.1875 -8 3 C-8 2.34 -8 1.68 -8 1 C-4.93251126 -0.86240388 -3.40254489 -1.2151946 0 0 Z " fill="#B9B9B9" transform="translate(118,207)"/>
<path d="M0 0 C1.65 0 3.3 0 5 0 C5.33 0.99 5.66 1.98 6 3 C3.69 3 1.38 3 -1 3 C-0.67 2.01 -0.34 1.02 0 0 Z " fill="#EBEBEB" transform="translate(261,188)"/>
<path d="M0 0 C1.65 0 3.3 0 5 0 C5.33 0.99 5.66 1.98 6 3 C3.69 3 1.38 3 -1 3 C-0.67 2.01 -0.34 1.02 0 0 Z " fill="#EEEEEE" transform="translate(165,188)"/>
<path d="M0 0 C3.375 -0.1875 3.375 -0.1875 7 0 C7.66 0.99 8.32 1.98 9 3 C5.7 2.67 2.4 2.34 -1 2 C-0.67 1.34 -0.34 0.68 0 0 Z " fill="#171717" transform="translate(203,186)"/>
<path d="M0 0 C0 0.66 0 1.32 0 2 C-2.31 2 -4.62 2 -7 2 C-7 1.34 -7 0.68 -7 0 C-4.3333581 -1.33332095 -2.83319697 -0.67102033 0 0 Z " fill="#F3F3F3" transform="translate(237,189)"/>
<path d="M0 0 C0 0.66 0 1.32 0 2 C-2.31 2 -4.62 2 -7 2 C-7 1.34 -7 0.68 -7 0 C-4.3333581 -1.33332095 -2.83319697 -0.67102033 0 0 Z " fill="#F3F3F3" transform="translate(223,189)"/>
<path d="M0 0 C0.66 0.99 1.32 1.98 2 3 C2.99 3.33 3.98 3.66 5 4 C5 4.66 5 5.32 5 6 C2.03 5.505 2.03 5.505 -1 5 C-0.67 3.35 -0.34 1.7 0 0 Z " fill="#050501" transform="translate(107,185)"/>
<path d="M0 0 C0.99 0 1.98 0 3 0 C2.34 1.98 1.68 3.96 1 6 C0.01 6 -0.98 6 -2 6 C-1.34 4.02 -0.68 2.04 0 0 Z " fill="#303030" transform="translate(133,186)"/>
<path d="M0 0 C0 0.33 0 0.66 0 1 C-3.02734375 1.24414062 -3.02734375 1.24414062 -6.0546875 1.48828125 C-8.39519216 1.87393036 -8.39519216 1.87393036 -10 5 C-9.625 2.5625 -9.625 2.5625 -9 0 C-5.93109813 -1.53445094 -3.29905734 -0.54984289 0 0 Z " fill="#3F3E13" transform="translate(115,184)"/>
</svg>
