<?xml version="1.0" standalone="no"?>
<!DOCTYPE svg PUBLIC "-//W3C//DTD SVG 20010904//EN"
 "http://www.w3.org/TR/2001/REC-SVG-20010904/DTD/svg10.dtd">
<svg version="1.0" xmlns="http://www.w3.org/2000/svg"
 width="350.000000pt" height="350.000000pt" viewBox="0 0 350.000000 350.000000"
 preserveAspectRatio="xMidYMid meet">
<metadata>
Created by potrace 1.10, written by Peter Selinger 2001-2011
</metadata>
<g transform="translate(0.000000,350.000000) scale(0.100000,-0.100000)"
fill="#000000" stroke="none">
<path d="M1655 2921 c-286 -46 -509 -239 -595 -516 -14 -49 -23 -109 -27 -198
-6 -124 -7 -128 -27 -123 -69 17 -208 36 -266 36 -53 0 -70 -4 -84 -19 -17
-19 -16 -21 28 -69 25 -27 46 -52 46 -56 0 -3 -18 -23 -40 -43 -28 -24 -40
-43 -38 -57 3 -19 12 -22 93 -29 50 -4 134 -15 188 -24 l97 -17 0 -59 c0 -298
208 -585 495 -683 96 -33 258 -44 358 -24 322 62 562 340 584 675 l6 91 96 17
c53 9 136 20 186 24 109 10 118 23 56 85 -23 22 -41 43 -41 46 0 2 18 24 40
48 64 70 51 94 -51 94 -57 0 -196 -19 -265 -36 -21 -5 -21 -1 -27 118 -10 240
-92 414 -259 555 -149 126 -373 192 -553 164z m233 -37 c44 -9 117 -35 171
-61 79 -38 108 -59 175 -127 91 -91 133 -156 173 -266 24 -67 27 -93 31 -233
4 -142 6 -158 21 -152 40 17 232 45 302 45 l78 0 -59 -56 -59 -56 52 -45 c29
-25 55 -48 59 -52 4 -3 -35 -7 -85 -7 -78 -1 -158 -12 -284 -40 -22 -4 -23 -9
-23 -93 0 -378 -307 -681 -690 -681 -383 0 -690 303 -690 681 0 84 -1 89 -22
93 -127 28 -207 39 -285 40 -50 0 -89 4 -85 7 4 4 30 27 59 52 l52 45 -59 56
-59 56 78 0 c70 0 262 -28 302 -45 15 -6 17 10 21 152 4 140 7 166 31 233 40
110 82 175 173 266 67 68 96 89 175 127 152 74 291 93 447 61z"/>
<path d="M1675 2869 c-231 -23 -427 -164 -530 -381 -47 -98 -65 -189 -65 -329
0 -113 1 -117 23 -123 12 -3 25 -6 28 -6 3 0 4 24 1 53 -7 83 14 245 41 323
67 192 244 357 430 401 79 18 215 18 294 0 186 -44 363 -209 430 -401 27 -78
48 -240 41 -323 -3 -29 -2 -53 1 -53 3 0 16 3 29 6 21 6 22 10 22 123 0 144
-19 233 -69 336 -128 263 -381 402 -676 374z m-411 -254 c-9 -14 -19 -23 -22
-20 -5 4 26 45 35 45 2 0 -4 -11 -13 -25z m1016 -48 c0 -6 -10 3 -22 19 -37
50 -41 60 -9 24 17 -19 31 -38 31 -43z m-1057 -2 c-3 -9 -8 -14 -10 -11 -3 3
-2 9 2 15 9 16 15 13 8 -4z"/>
<path d="M1595 2781 c-89 -26 -147 -57 -209 -111 -149 -130 -207 -243 -224
-437 l-7 -81 55 -7 c156 -19 158 -80 3 -93 -35 -2 -63 -9 -63 -15 0 -13 148
-3 163 12 23 23 27 9 27 -94 l0 -104 -32 -17 c-18 -9 -59 -18 -92 -19 l-59 -2
2 -72 c8 -250 174 -477 408 -557 112 -39 254 -39 366 0 234 80 400 307 408
556 l2 71 -60 4 c-33 1 -74 10 -91 19 l-32 17 0 103 0 104 38 -14 c41 -15 152
-19 152 -5 0 4 -28 11 -62 13 -156 13 -154 74 2 93 l55 7 -7 81 c-17 193 -75
307 -224 437 -100 87 -223 130 -370 129 -54 0 -113 -7 -149 -18z m295 -26 c94
-25 176 -72 249 -144 111 -109 171 -240 171 -371 l0 -67 -52 -6 c-61 -8 -102
-34 -106 -68 -2 -13 -8 -28 -13 -33 -5 -6 -9 -56 -9 -112 0 -95 1 -103 26
-127 22 -23 95 -47 139 -47 23 0 19 -114 -6 -196 -38 -126 -129 -244 -243
-319 -149 -98 -370 -111 -539 -30 -107 51 -223 171 -273 281 -24 54 -54 183
-54 232 0 28 3 30 52 36 68 9 112 30 128 62 l14 25 54 -53 54 -53 -7 -55 c-4
-30 -11 -104 -15 -165 -4 -60 -11 -122 -15 -137 -6 -21 -2 -29 17 -41 69 -45
532 -42 574 4 15 17 15 21 0 59 -11 28 -16 72 -16 145 0 86 -4 116 -25 173
-29 82 -30 98 -9 167 13 40 23 54 44 62 34 13 86 82 102 135 18 61 3 86 -82
140 -98 62 -119 71 -157 64 -18 -2 -33 -2 -33 2 0 4 9 32 20 62 11 30 20 68
20 85 0 16 7 39 15 49 25 33 18 62 -25 102 -55 52 -77 63 -128 64 -77 0 -130
-42 -162 -131 -24 -63 -19 -125 12 -176 29 -48 17 -67 -65 -107 -81 -39 -98
-59 -122 -137 -9 -30 -24 -69 -33 -87 l-18 -32 -17 60 c-21 71 -40 86 -117 97
-52 8 -55 10 -58 39 -2 17 4 64 12 105 44 211 208 388 412 444 66 18 216 18
284 0z m-65 -118 c29 -14 85 -69 85 -83 0 -6 -9 -23 -21 -38 -12 -16 -18 -33
-14 -45 7 -23 -21 -116 -41 -132 -38 -31 -1 -60 67 -52 38 4 50 1 74 -20 17
-13 48 -33 70 -45 22 -11 49 -29 59 -41 17 -18 18 -26 8 -59 -17 -55 -79 -125
-106 -118 -19 4 -23 -3 -44 -88 l-23 -94 27 -63 c24 -56 28 -82 33 -200 4 -89
10 -141 19 -152 17 -20 10 -23 -68 -31 -177 -17 -373 -13 -463 9 -25 7 -25 8
-11 41 9 20 14 69 14 126 0 51 7 118 15 147 16 63 18 60 -67 143 -70 69 -71
82 -23 193 19 44 35 87 35 95 0 38 41 81 103 109 35 16 75 43 90 61 25 30 26
34 12 50 -8 9 -15 21 -15 27 0 6 -7 16 -16 24 -9 7 -13 21 -10 32 3 11 1 28
-4 37 -11 20 15 95 46 136 35 46 110 60 169 31z"/>
<path d="M1704 2611 c-33 -20 -49 -39 -42 -47 3 -2 16 5 31 16 14 11 36 20 50
20 32 0 57 9 57 21 0 16 -64 9 -96 -10z"/>
<path d="M1785 2580 c-11 -4 -29 -6 -41 -3 -11 2 -26 -3 -33 -11 -8 -9 -19
-16 -27 -16 -7 0 -22 -13 -33 -29 -17 -23 -19 -36 -13 -71 4 -23 12 -40 17
-38 6 1 9 10 7 18 -15 69 -16 66 26 83 22 9 44 22 48 29 6 10 4 10 -7 2 -23
-17 -69 -34 -69 -26 0 12 67 42 95 42 13 0 35 4 49 9 18 7 28 6 36 -5 7 -7 9
-14 4 -14 -5 0 -2 -4 6 -9 16 -11 30 -5 30 12 0 12 -45 38 -64 36 -6 0 -20 -4
-31 -9z"/>
<path d="M1785 2550 c-28 -7 -28 -8 -5 -9 14 0 32 4 40 9 17 11 8 11 -35 0z"/>
<path d="M1795 2519 c-16 -5 -35 -7 -42 -4 -7 2 -21 -6 -31 -19 -14 -18 -22
-22 -35 -14 -13 7 -17 5 -17 -10 0 -20 18 -42 35 -42 5 0 2 5 -7 11 -21 12
-24 31 -4 23 8 -3 20 3 27 13 8 10 30 19 51 21 33 3 38 1 44 -23 4 -15 2 -31
-5 -38 -6 -6 -11 -28 -11 -48 0 -38 0 -38 -30 -27 -17 5 -39 21 -50 35 -22 29
-25 25 -34 -52 -4 -34 -3 -45 4 -35 5 8 10 32 10 53 0 32 2 36 14 25 8 -7 12
-16 10 -20 -2 -3 7 -15 21 -26 l25 -20 -25 -47 c-17 -33 -23 -55 -18 -73 6
-26 6 -26 -18 -12 -16 10 -39 14 -69 10 l-45 -5 75 -14 c78 -14 160 -3 160 20
0 11 -23 8 -67 -7 -17 -6 -17 -6 -2 11 9 9 32 20 50 24 38 8 49 26 19 34 -12
3 -26 19 -32 35 -7 17 -23 36 -36 42 -32 14 -22 23 11 11 32 -12 57 7 57 44 0
13 5 27 10 30 14 9 12 81 -2 92 -8 6 -25 7 -43 2z m-15 -269 c-18 -11 -22 -7
-14 14 5 13 10 14 18 6 8 -8 7 -13 -4 -20z"/>
<path d="M1642 2260 c-29 -27 -30 -30 -12 -30 12 0 18 5 15 10 -3 6 -2 10 4
10 6 0 15 9 21 20 14 26 11 25 -28 -10z"/>
<path d="M1876 2248 c-8 -13 -28 -60 -44 -105 -34 -92 -78 -161 -123 -193 -16
-12 -28 -25 -24 -28 10 -10 -38 -52 -59 -52 -16 1 -11 6 17 21 55 29 41 33
-16 5 -50 -24 -52 -36 -6 -36 15 0 31 -5 34 -10 5 -8 11 -8 19 -1 7 6 16 9 19
6 4 -3 5 -2 2 2 -7 9 36 53 52 53 7 0 13 5 13 10 0 13 -31 -2 -50 -24 -7 -9
-17 -16 -23 -16 -5 0 12 23 39 52 40 43 54 52 82 51 18 0 36 -4 40 -8 4 -5 0
-6 -9 -3 -9 4 -22 2 -30 -3 -10 -6 -7 -9 12 -9 15 0 35 8 46 18 10 9 14 14 9
10 -21 -16 -26 -7 -9 16 12 16 20 20 25 12 4 -6 8 5 8 24 l0 35 -23 -39 c-12
-22 -29 -42 -37 -44 -12 -4 -13 -2 -4 9 6 8 14 28 18 44 7 28 6 28 -23 -12
-17 -24 -36 -43 -41 -43 -14 0 -13 4 11 45 12 20 36 78 53 128 28 83 34 92 56
92 19 0 24 -5 22 -20 -2 -19 -2 -19 9 -1 23 37 -41 51 -65 14z m-36 -232 c0
-2 -8 -10 -17 -17 -16 -13 -17 -12 -4 4 13 16 21 21 21 13z m-165 -146 c-3 -5
-11 -10 -16 -10 -6 0 -7 5 -4 10 3 6 11 10 16 10 6 0 7 -4 4 -10z"/>
<path d="M1547 2209 c-38 -20 -77 -70 -77 -101 0 -9 -13 -45 -30 -80 -44 -93
-41 -108 34 -182 l64 -63 11 38 c16 54 -9 94 -72 118 -38 15 -34 5 7 -14 44
-21 65 -53 59 -89 -7 -33 -7 -32 -72 26 -61 55 -64 73 -22 167 16 36 32 79 36
94 8 38 47 76 85 83 16 4 30 10 30 15 0 13 -10 11 -53 -12z"/>
<path d="M1673 2223 c9 -2 23 -2 30 0 6 3 -1 5 -18 5 -16 0 -22 -2 -12 -5z"/>
<path d="M1957 2210 c-4 -14 0 -20 11 -20 10 0 32 -9 49 -20 l33 -19 -22 -38
c-12 -21 -23 -40 -25 -42 -1 -2 -9 2 -18 9 -9 8 -15 9 -15 2 0 -6 8 -15 17
-21 14 -8 23 1 50 50 18 33 33 61 33 64 0 5 -95 55 -104 55 -2 0 -6 -9 -9 -20z"/>
<path d="M1618 2213 c6 -2 18 -2 25 0 6 3 1 5 -13 5 -14 0 -19 -2 -12 -5z"/>
<path d="M1887 2192 c-10 -11 -14 -26 -10 -42 6 -22 7 -21 20 15 15 45 13 52
-10 27z"/>
<path d="M1943 2120 c0 -36 2 -50 4 -32 2 17 2 47 0 65 -2 17 -4 3 -4 -33z"/>
<path d="M1796 2128 c-10 -24 -29 -61 -43 -82 -21 -33 -27 -37 -35 -23 -8 15
-12 15 -38 -5 -33 -24 -81 -28 -104 -8 -10 8 -16 29 -16 55 0 28 -7 51 -20 66
-10 13 -19 19 -20 12 0 -6 5 -13 10 -15 7 -2 5 -16 -5 -40 -8 -21 -15 -53 -15
-71 0 -25 -7 -39 -22 -50 -13 -9 -18 -16 -12 -16 28 -2 47 27 49 76 1 27 7 58
13 69 9 16 10 11 9 -28 -2 -54 12 -74 58 -84 22 -4 40 1 68 20 45 31 49 18 6
-18 -20 -17 -43 -26 -65 -26 -30 0 -34 -3 -34 -25 0 -14 5 -25 10 -25 26 0 90
43 133 89 43 46 105 157 94 168 -3 2 -12 -15 -21 -39z m-116 -163 c0 -5 -75
-45 -85 -45 -3 0 -5 7 -5 15 0 10 10 15 28 15 15 0 34 5 42 10 17 11 20 12 20
5z"/>
<path d="M1912 2089 c-2 -95 -22 -138 -65 -140 -13 0 -16 -3 -9 -6 21 -8 59
17 72 47 6 14 9 62 7 106 l-3 79 -2 -86z"/>
<path d="M1862 2130 c0 -14 4 -36 8 -50 8 -24 8 -24 8 5 0 17 -3 39 -8 50 -8
18 -9 18 -8 -5z"/>
<path d="M1962 2125 c0 -16 2 -22 5 -12 2 9 2 23 0 30 -3 6 -5 -1 -5 -18z"/>
<path d="M2073 2128 c-18 -22 -45 -80 -40 -85 3 -2 17 16 32 42 26 43 30 71 8
43z"/>
<path d="M1716 2065 c-3 -8 -1 -15 4 -15 6 0 10 7 10 15 0 8 -2 15 -4 15 -2 0
-6 -7 -10 -15z"/>
<path d="M1778 1933 c6 -2 18 -2 25 0 6 3 1 5 -13 5 -14 0 -19 -2 -12 -5z"/>
<path d="M1891 1922 c-1 -7 -19 -32 -41 -55 l-39 -43 41 -25 c22 -13 51 -34
64 -46 13 -12 24 -20 24 -17 0 9 -61 94 -67 94 -3 0 0 -7 7 -15 16 -19 1 -19
-24 0 -19 14 -13 41 6 29 7 -5 9 -1 5 9 -3 8 1 21 10 29 14 11 16 10 11 -14
-3 -16 0 -32 7 -38 10 -8 12 0 8 37 -5 50 -11 77 -12 55z"/>
<path d="M1764 1906 c-5 -6 -21 -19 -35 -29 -15 -11 -17 -14 -4 -8 30 14 61
39 55 44 -3 3 -10 0 -16 -7z"/>
<path d="M1785 1890 c-38 -39 -110 -68 -135 -52 -23 14 -75 1 -75 -19 0 -10
13 -14 50 -13 74 2 104 8 97 18 -3 5 2 6 12 3 10 -4 27 -2 39 4 27 14 87 70
87 81 0 20 -49 5 -75 -22z m55 12 c0 -17 -73 -72 -95 -72 -3 0 11 17 32 39 36
36 63 50 63 33z m-186 -77 c18 -14 17 -15 -25 -15 -41 1 -43 2 -25 15 24 18
26 18 50 0z"/>
<path d="M1783 1813 c-7 -3 -13 -10 -13 -17 0 -20 35 -47 53 -41 8 4 18 2 22
-4 3 -6 0 -9 -8 -5 -31 11 -26 -16 7 -41 33 -25 86 -93 86 -110 0 -11 -153
153 -164 177 -6 11 -18 18 -30 16 -28 -4 -23 -48 12 -108 14 -25 25 -49 23
-55 -1 -5 1 -7 4 -3 4 4 36 -17 72 -47 35 -30 70 -55 76 -55 7 0 6 4 -3 10 -8
5 -12 10 -7 10 11 0 -18 52 -42 74 -12 11 -21 15 -21 9 0 -5 11 -19 25 -31 14
-12 25 -28 25 -34 -1 -7 -16 5 -35 27 -19 22 -35 34 -35 26 0 -23 -47 26 -68
73 -11 22 -22 55 -26 71 -6 28 -6 29 9 10 8 -11 36 -42 62 -69 27 -27 40 -46
29 -42 -16 5 -17 4 -6 -9 7 -8 17 -12 22 -9 5 3 27 -12 48 -35 41 -43 50 -48
50 -30 0 5 -5 7 -12 3 -8 -5 -9 -2 -5 10 9 24 -24 77 -71 116 -43 35 -32 40
18 8 46 -29 63 -32 50 -9 -5 10 -16 23 -24 30 -9 8 -13 18 -9 25 4 6 0 5 -9
-2 -13 -10 -18 -10 -24 -1 -5 8 -3 9 6 4 9 -6 11 -4 6 4 -5 7 -11 10 -14 6 -3
-3 -19 8 -36 24 -17 16 -37 26 -43 24z m122 -103 c10 -11 16 -20 13 -20 -3 0
-13 9 -23 20 -10 11 -16 20 -13 20 3 0 13 -9 23 -20z"/>
<path d="M1559 1782 c-6 -38 -4 -84 4 -89 6 -4 8 9 4 35 -4 31 -2 42 8 42 8 0
16 -8 18 -17 4 -17 5 -17 6 0 2 37 27 14 43 -41 31 -105 131 -219 242 -274
l49 -25 -53 -6 c-65 -8 -92 5 -151 71 -53 59 -93 131 -114 203 -13 47 -15 49
-10 14 9 -73 69 -177 142 -245 65 -61 67 -62 111 -56 25 3 56 6 69 6 35 0 20
16 -48 50 -32 17 -83 54 -113 84 -58 58 -116 162 -116 207 0 29 -1 29 -72 44
-10 2 -18 0 -19 -3z"/>
<path d="M1670 1753 c0 -36 47 -136 60 -128 5 3 7 0 4 -8 -7 -19 109 -123 178
-161 l53 -28 -45 46 c-24 25 -50 46 -58 46 -7 0 -11 4 -8 8 3 5 -11 24 -32 43
-25 23 -29 25 -13 7 14 -16 19 -28 13 -28 -26 0 -120 156 -124 205 -3 34 -28
32 -28 -2z m49 -93 c11 -24 11 -24 -3 -6 -9 11 -16 24 -16 30 0 12 5 7 19 -24z
m181 -175 c0 -10 -16 -4 -40 16 l-25 20 33 -16 c17 -8 32 -18 32 -20z"/>
<path d="M1529 1698 c-7 -24 -12 -84 -11 -134 1 -50 -2 -105 -7 -121 -9 -30
-7 -31 22 -36 18 -3 77 -9 132 -13 l99 -7 -51 57 c-62 68 -110 161 -121 236
l-9 55 -8 -60 c-6 -49 -4 -72 15 -135 33 -111 33 -122 0 -53 -29 61 -55 207
-43 240 3 7 3 13 -1 13 -3 0 -11 -19 -17 -42z m51 -216 c22 -47 34 -62 41 -55
8 8 4 36 -15 100 -32 109 -33 147 -2 72 29 -72 61 -126 99 -166 l31 -33 -85 6
c-129 8 -132 9 -125 46 3 17 7 74 7 127 l2 96 8 -63 c4 -35 22 -93 39 -130z"/>
<path d="M1938 1644 c10 -12 19 -17 21 -11 2 6 -1 13 -8 15 -6 2 -9 7 -7 11 3
4 -1 8 -9 8 -10 0 -10 -5 3 -23z"/>
<path d="M1152 2095 c0 -16 2 -22 5 -12 2 9 2 23 0 30 -3 6 -5 -1 -5 -18z"/>
<path d="M2342 2095 c0 -16 2 -22 5 -12 2 9 2 23 0 30 -3 6 -5 -1 -5 -18z"/>
<path d="M891 1986 c-10 -12 -7 -18 14 -32 14 -9 24 -23 21 -30 -3 -8 -1 -14
4 -14 18 0 10 39 -10 50 -25 13 -26 27 -2 33 14 4 14 5 1 6 -9 0 -22 -5 -28
-13z"/>
<path d="M960 1955 c0 -25 5 -45 10 -45 6 0 10 20 10 45 0 25 -4 45 -10 45 -5
0 -10 -20 -10 -45z"/>
<path d="M1086 1984 c-33 -32 -9 -80 36 -71 20 4 20 4 -4 6 -24 1 -28 5 -28
31 0 22 6 33 23 40 16 6 17 9 5 9 -9 1 -24 -6 -32 -15z"/>
<path d="M1150 1955 c0 -26 5 -45 11 -45 6 0 9 9 6 20 -4 15 0 20 16 21 22 1
22 1 0 7 -23 7 -20 25 7 35 9 3 4 6 -12 6 -27 1 -28 -1 -28 -44z"/>
<path d="M1000 1985 c0 -10 45 -75 52 -75 9 0 -30 68 -43 76 -5 3 -9 3 -9 -1z"/>
<path d="M1052 1970 c0 -14 2 -19 5 -12 2 6 2 18 0 25 -3 6 -5 1 -5 -13z"/>
<path d="M2323 1964 c3 -4 0 -19 -9 -35 -16 -32 -9 -39 12 -11 17 21 18 52 2
52 -6 0 -9 -3 -5 -6z"/>
<path d="M2364 1956 c-9 -22 -1 -49 16 -54 13 -5 13 -3 1 12 -12 14 -12 22 -3
37 8 12 8 19 2 19 -6 0 -13 -6 -16 -14z"/>
<path d="M2418 1944 c3 -16 -1 -30 -9 -35 -8 -5 -9 -9 -3 -9 20 0 36 28 29 50
-9 29 -23 25 -17 -6z"/>
<path d="M2480 1955 c0 -10 -7 -27 -17 -37 -9 -10 -11 -18 -5 -18 6 0 19 11
28 26 13 19 14 28 5 37 -8 8 -11 6 -11 -8z"/>
<path d="M2528 1963 c7 -3 16 -2 19 1 4 3 -2 6 -13 5 -11 0 -14 -3 -6 -6z"/>
<path d="M2530 1943 c15 -7 12 -24 -7 -46 -18 -19 -17 -20 5 -8 25 13 28 52 4
57 -7 1 -8 0 -2 -3z"/>
<path d="M1001 1924 c0 -11 3 -14 6 -6 3 7 2 16 -1 19 -3 4 -6 -2 -5 -13z"/>
<path d="M1083 1726 c10 -184 70 -320 196 -447 136 -136 277 -194 471 -194
194 0 335 58 471 194 126 127 186 263 196 447 l6 101 -29 -4 c-29 -5 -29 -5
-32 -81 -6 -155 -63 -297 -164 -407 -153 -167 -348 -234 -564 -194 -272 50
-485 308 -496 601 -3 76 -3 76 -32 81 l-29 4 6 -101z m187 -397 c15 -28 5 -23
-15 7 -9 15 -12 23 -6 20 6 -4 16 -16 21 -27z m970 1 c-12 -16 -24 -30 -26
-30 -7 0 5 20 24 43 24 27 25 20 2 -13z"/>
<path d="M552 907 c-44 -47 -22 -111 49 -148 52 -26 46 -44 -17 -44 -36 0 -49
-4 -52 -16 -4 -23 17 -36 76 -43 49 -6 55 -5 82 23 38 37 39 78 5 120 -14 16
-41 35 -60 41 -49 16 -43 28 16 32 l51 3 25 -55 c14 -30 28 -77 32 -104 12
-90 71 -90 81 0 3 27 14 64 24 83 l18 35 14 -26 c7 -14 34 -35 59 -47 57 -27
54 -46 -8 -46 -25 0 -51 -5 -57 -11 -32 -32 101 -69 145 -40 64 42 49 130 -29
168 -25 12 -46 26 -46 30 0 4 17 8 38 8 21 0 43 5 48 10 8 8 19 7 37 -1 27
-12 27 -14 27 -109 0 -112 15 -139 60 -110 11 7 16 36 20 112 4 88 8 103 23
106 15 3 17 -7 17 -101 0 -128 2 -131 97 -123 37 3 79 6 93 7 32 1 50 16 50
43 1 16 5 13 18 -14 21 -42 61 -49 77 -12 12 27 22 28 30 3 8 -28 42 -36 64
-17 10 9 21 12 27 7 5 -5 32 -11 60 -15 42 -5 55 -3 76 13 24 19 24 19 36 0
10 -15 24 -19 73 -19 33 0 70 5 81 11 14 8 23 8 31 0 14 -14 122 -14 148 0 15
7 24 7 35 -2 9 -7 35 -10 69 -7 44 4 62 11 85 33 23 22 30 25 30 13 0 -32 29
-48 86 -48 31 0 64 5 74 10 13 7 27 6 44 -1 34 -16 54 1 58 49 l3 37 28 -43
c32 -49 52 -60 78 -44 12 8 35 8 74 2 63 -10 84 -4 109 32 38 53 4 122 -72
149 -45 16 -40 29 12 29 90 0 77 49 -15 58 -42 4 -54 1 -74 -18 l-24 -22 -27
21 c-21 16 -41 21 -90 21 -34 0 -66 -5 -69 -10 -5 -8 -11 -8 -20 0 -8 6 -44
10 -87 8 -63 -3 -74 -6 -82 -24 l-9 -21 -35 23 c-39 27 -128 34 -150 12 -9 -9
-15 -9 -24 0 -16 16 -140 16 -156 0 -9 -9 -15 -9 -24 0 -17 17 -142 16 -157
-2 -10 -12 -16 -12 -39 0 -43 22 -105 18 -130 -9 -44 -47 -22 -111 49 -148 53
-27 46 -45 -17 -41 -47 2 -48 2 -26 -13 28 -21 91 -16 106 8 16 25 -1 47 -60
77 -41 21 -49 30 -52 57 -2 23 3 35 20 47 24 17 71 20 103 5 14 -6 6 -7 -26
-3 -35 4 -50 2 -62 -11 -29 -29 -19 -46 45 -74 123 -52 64 -160 -69 -125 -28
8 -30 15 -44 127 -17 141 -54 156 -96 41 -21 -59 -21 -59 -32 -31 -6 15 -14
39 -17 52 -8 31 -37 57 -57 49 -19 -7 -23 -20 -32 -99 -13 -125 -11 -120 -61
-117 -43 4 -44 5 -44 38 0 31 3 34 29 34 35 0 56 21 39 38 -7 7 -25 12 -40 12
-21 0 -28 5 -28 20 0 14 7 20 23 20 12 0 33 7 45 16 18 12 20 19 12 29 -14 17
-317 20 -337 4 -8 -7 -18 -7 -32 0 -11 6 -36 11 -56 11 -20 0 -45 -5 -56 -11
-15 -7 -24 -7 -35 2 -17 14 -44 -4 -44 -30 -1 -9 -6 -26 -13 -39 -13 -22 -13
-21 -35 23 -24 51 -45 64 -73 47 -13 -8 -26 -9 -44 -2 -47 18 -99 12 -123 -13z
m123 -8 c14 -6 6 -7 -26 -3 -35 4 -50 2 -62 -11 -29 -29 -19 -46 45 -74 26
-11 52 -29 58 -41 15 -29 5 -67 -22 -81 -21 -11 -112 -8 -125 5 -12 12 7 19
21 7 21 -17 87 -10 100 12 16 25 -1 47 -60 77 -41 21 -49 30 -52 57 -2 23 3
35 20 47 24 17 71 20 103 5z m99 -41 c12 -29 26 -62 30 -72 6 -17 11 -11 31
33 14 29 25 62 25 72 0 10 5 19 10 19 18 0 11 -34 -20 -94 -18 -35 -30 -74
-30 -97 0 -32 -3 -39 -20 -39 -17 0 -20 7 -20 39 0 21 -11 63 -24 92 -37 85
-40 99 -21 99 10 0 25 -20 39 -52z m251 41 c15 -7 10 -8 -17 -4 -84 13 -108
-43 -33 -76 24 -11 51 -26 60 -35 20 -20 19 -68 -1 -88 -24 -25 -134 -20 -134
5 0 6 8 5 19 -1 29 -15 87 -12 101 5 21 25 6 49 -48 78 -61 33 -76 55 -63 91
13 33 71 46 116 25z m167 4 l-33 -4 3 -110 c3 -98 1 -109 -14 -109 -16 0 -18
12 -18 109 l0 110 -32 4 c-18 2 3 4 47 4 44 0 65 -2 47 -4z m151 0 l-53 -4 0
-45 0 -44 48 -2 47 -2 -47 -3 -48 -4 0 -54 0 -54 58 -4 c51 -3 49 -3 -20 -5
l-78 -2 0 115 0 115 73 -2 c62 -1 65 -2 20 -5z m161 -80 c15 -49 30 -95 33
-103 3 -9 10 3 17 30 28 101 50 160 60 157 6 -2 16 -48 23 -103 16 -129 16
-124 -6 -124 -16 0 -19 11 -26 83 l-7 82 -26 -82 c-34 -112 -51 -112 -83 -1
-13 45 -25 76 -26 68 -1 -8 -5 -45 -8 -82 -4 -38 -11 -68 -17 -68 -6 0 -7 19
-3 53 13 106 27 177 35 177 4 0 20 -39 34 -87z m459 80 l-53 -4 0 -45 0 -44
48 -2 47 -2 -47 -3 -48 -4 0 -54 0 -54 58 -4 c51 -3 49 -3 -20 -5 l-78 -2 0
115 0 115 73 -2 c62 -1 65 -2 20 -5z m180 0 l-51 -4 -4 -44 -3 -45 50 -2 50
-2 -50 -3 -50 -4 3 -54 4 -54 56 -4 c50 -3 47 -3 -20 -5 l-78 -2 0 115 0 115
73 -2 c61 -1 64 -2 20 -5z m230 -33 c26 -30 29 -38 25 -86 -3 -33 -12 -62 -23
-74 -22 -25 -78 -41 -116 -33 l-29 6 0 114 0 115 57 -4 c48 -4 61 -10 86 -38z
m155 33 l-58 -4 0 -44 0 -45 53 -2 52 -2 -52 -3 -53 -4 0 -54 0 -54 58 -4 c53
-3 52 -3 -18 -5 l-75 -2 2 112 c1 62 2 114 3 116 0 1 33 1 73 0 69 -2 70 -2
15 -5z m212 -8 c43 -22 42 -77 -2 -101 -16 -9 -15 -14 17 -62 32 -50 33 -52
12 -52 -16 0 -30 14 -50 50 -19 33 -35 50 -48 50 -16 0 -19 -7 -19 -50 0 -41
-3 -50 -17 -50 -16 0 -18 11 -16 112 1 62 2 113 3 114 0 0 20 1 45 3 25 1 57
-5 75 -14z m195 4 c14 -6 6 -7 -26 -3 -34 4 -48 2 -58 -10 -21 -26 -8 -49 44
-75 60 -31 77 -66 51 -105 -14 -22 -24 -26 -62 -26 -56 0 -76 10 -104 54 -20
33 -20 36 -4 61 17 25 17 25 31 5 8 -11 32 -29 54 -41 53 -27 46 -45 -17 -41
-44 2 -47 1 -29 -13 24 -17 86 -20 103 -3 7 7 12 23 12 35 0 18 -10 28 -43 42
-54 23 -77 46 -77 76 0 44 70 69 125 44z m-915 -51 c0 -33 -3 -39 -12 -30 -7
7 -25 12 -40 12 -21 0 -28 5 -28 20 0 14 7 20 23 20 12 0 29 5 37 10 8 5 16
10 18 10 1 0 2 -19 2 -42z m180 0 c0 -33 -3 -39 -12 -30 -7 7 -27 12 -45 12
-26 0 -33 4 -33 20 0 15 7 20 28 20 15 0 34 5 42 10 8 5 16 10 18 10 1 0 2
-19 2 -42z m-360 -10 c0 -39 -1 -40 -18 -25 -10 9 -33 22 -50 28 -45 16 -40
27 16 32 26 2 48 4 50 5 1 1 2 -17 2 -40z m740 14 c0 -26 -2 -27 -40 -24 -31
3 -40 8 -40 22 0 17 10 22 68 29 7 0 12 -10 12 -27z m-560 -97 l0 -45 -40 0
c-39 0 -40 1 -40 35 0 32 2 35 29 35 17 0 33 5 36 10 11 19 15 10 15 -35z
m180 0 l0 -45 -45 0 c-45 0 -45 0 -45 35 0 33 2 35 34 35 19 0 38 5 41 10 11
19 15 10 15 -35z m380 -5 c0 -40 0 -40 -40 -40 -39 0 -40 1 -40 34 0 33 2 35
38 39 20 2 38 4 40 5 1 1 2 -16 2 -38z"/>
<path d="M2270 795 c0 -103 0 -105 23 -105 35 0 57 21 67 65 17 73 -19 145
-72 145 -16 0 -18 -11 -18 -105z m48 63 c27 -27 11 -148 -20 -148 -4 0 -8 36
-8 80 0 79 5 91 28 68z"/>
<path d="M2650 845 c0 -54 1 -55 29 -55 31 0 45 12 55 47 9 28 -24 63 -59 63
-24 0 -25 -3 -25 -55z m50 1 c0 -14 -4 -28 -10 -31 -6 -4 -10 7 -10 24 0 17 5
31 10 31 6 0 10 -11 10 -24z"/>
</g>
</svg>
