<?xml version="1.0" encoding="UTF-8"?>
<svg version="1.1" xmlns="http://www.w3.org/2000/svg" width="50" height="50">
<path d="M0 0 C5.14338337 2.9958329 8.76038445 7.90615335 10.625 13.5 C11.28606953 20.81511362 11.39339707 27.56922358 6.625 33.5 C0.28297679 39.3315988 -4.73061574 40.88324877 -13.30078125 40.76953125 C-18.76770435 40.29022033 -22.4406983 38.60360601 -26.16015625 34.55859375 C-31.45356581 27.76350772 -32.12237123 22.02436466 -31.375 13.5 C-29.62831073 6.79137816 -25.19768102 2.95534869 -19.375 -0.5 C-13.29956434 -2.52514522 -5.92264469 -2.60046489 0 0 Z " fill="#EBE4F3" transform="translate(35.375,5.5)"/>
<path d="M0 0 C2.9375 1.4375 2.9375 1.4375 5 4 C5.86750146 8.4283884 5.5514878 11.92000306 3.5 15.9375 C3.005 16.618125 2.51 17.29875 2 18 C2 18.66 2 19.32 2 20 C3.66279327 21.0064275 5.32983484 22.00585407 7 23 C9.1519437 26.22791555 9.20086443 27.28400809 9 31 C3.35738637 34.76174242 -2.3708387 34.70638604 -9 34 C-11.36294018 33.23860817 -12.91981736 32.38678843 -15 31 C-14.875 27.75 -14.875 27.75 -14 24 C-10.9375 21.5625 -10.9375 21.5625 -8 20 C-9.39759905 16.45481116 -9.39759905 16.45481116 -11 13 C-11.50455052 8.71545627 -11.71978996 5.18045554 -9.4375 1.4375 C-6.02983728 -0.57214724 -3.89581737 -0.54678139 0 0 Z " fill="#B76A17" transform="translate(28,12)"/>
<path d="M0 0 C0.66 0.99 1.32 1.98 2 3 C5 3.5 5 3.5 8 3 C8.66 2.01 9.32 1.02 10 0 C13.26460973 1.80412643 14.88929795 2.83394693 17 6 C17.125 8.6875 17.125 8.6875 17 11 C11.35738637 14.76174242 5.6291613 14.70638604 -1 14 C-3.36294018 13.23860817 -4.91981736 12.38678843 -7 11 C-6.875 7.75 -6.875 7.75 -6 4 C-2.9375 1.5625 -2.9375 1.5625 0 0 Z " fill="#6E44BA" transform="translate(20,32)"/>
<path d="M0 0 C2.9375 1.5625 2.9375 1.5625 5 4 C5.3125 7.75 5.3125 7.75 5 11 C4.34 11 3.68 11 3 11 C2.34 9.35 1.68 7.7 1 6 C-2.3 6.33 -5.6 6.66 -9 7 C-9 8.32 -9 9.64 -9 11 C-9.66 11 -10.32 11 -11 11 C-11.48076923 4.75 -11.48076923 4.75 -9.4375 1.5625 C-6.04295632 -0.61348954 -3.9634351 -0.55627159 0 0 Z " fill="#543931" transform="translate(28,12)"/>
<path d="M0 0 C2.64 0 5.28 0 8 0 C8.042721 1.66611905 8.04063832 3.33382885 8 5 C7 6 7 6 4 6.125 C1 6 1 6 0 5 C-0.04063832 3.33382885 -0.042721 1.66611905 0 0 Z " fill="#9D5214" transform="translate(21,30)"/>
<path d="M0 0 C0.66 0.99 1.32 1.98 2 3 C5 3.5 5 3.5 8 3 C8.66 2.01 9.32 1.02 10 0 C10.33 0.99 10.66 1.98 11 3 C9.3125 5.0625 9.3125 5.0625 7 7 C3.92901621 6.92509796 2.51439964 6.44344796 0.1875 4.4375 C-0.204375 3.963125 -0.59625 3.48875 -1 3 C-0.67 2.01 -0.34 1.02 0 0 Z " fill="#402492" transform="translate(20,32)"/>
</svg>
